<svg width="32" height="33" viewBox="0 0 32 33" fill="none" xmlns="http://www.w3.org/2000/svg">
<path d="M4 16.5H16V18.5H4V16.5ZM2 11.5H12V13.5H2V11.5Z" fill="#401C2A"/>
<path d="M29.9191 17.106L26.9191 10.106C26.8421 9.92608 26.714 9.77273 26.5506 9.665C26.3872 9.55727 26.1958 9.49989 26.0001 9.5H23.0001V7.5C23.0001 7.23478 22.8947 6.98043 22.7072 6.79289C22.5197 6.60536 22.2653 6.5 22.0001 6.5H6.00009V8.5H21.0001V21.056C20.5444 21.3206 20.1456 21.6728 19.8268 22.0922C19.5079 22.5117 19.2752 22.9902 19.1421 23.5H12.8581C12.6147 22.5573 12.0359 21.7358 11.2301 21.1894C10.4243 20.643 9.4469 20.4092 8.48109 20.5319C7.51528 20.6546 6.62736 21.1253 5.98377 21.8558C5.34018 22.5863 4.98511 23.5264 4.98511 24.5C4.98511 25.4736 5.34018 26.4137 5.98377 27.1442C6.62736 27.8747 7.51528 28.3454 8.48109 28.4681C9.4469 28.5908 10.4243 28.357 11.2301 27.8106C12.0359 27.2642 12.6147 26.4427 12.8581 25.5H19.1421C19.3596 26.3582 19.8571 27.1194 20.5559 27.6632C21.2546 28.2069 22.1147 28.5021 23.0001 28.5021C23.8855 28.5021 24.7456 28.2069 25.4443 27.6632C26.1431 27.1194 26.6406 26.3582 26.8581 25.5H29.0001C29.2653 25.5 29.5197 25.3946 29.7072 25.2071C29.8947 25.0196 30.0001 24.7652 30.0001 24.5V17.5C30.0001 17.3645 29.9726 17.2305 29.9191 17.106ZM9.00009 26.5C8.60453 26.5 8.21785 26.3827 7.88895 26.1629C7.56005 25.9432 7.30371 25.6308 7.15233 25.2654C7.00096 24.8999 6.96135 24.4978 7.03852 24.1098C7.11569 23.7219 7.30617 23.3655 7.58588 23.0858C7.86558 22.8061 8.22195 22.6156 8.60991 22.5384C8.99787 22.4613 9.4 22.5009 9.76546 22.6522C10.1309 22.8036 10.4433 23.06 10.663 23.3889C10.8828 23.7178 11.0001 24.1044 11.0001 24.5C10.9996 25.0303 10.7887 25.5387 10.4137 25.9136C10.0388 26.2886 9.53036 26.4995 9.00009 26.5ZM23.0001 11.5H25.3401L27.4841 16.5H23.0001V11.5ZM23.0001 26.5C22.6045 26.5 22.2178 26.3827 21.889 26.1629C21.5601 25.9432 21.3037 25.6308 21.1523 25.2654C21.001 24.8999 20.9614 24.4978 21.0385 24.1098C21.1157 23.7219 21.3062 23.3655 21.5859 23.0858C21.8656 22.8061 22.2219 22.6156 22.6099 22.5384C22.9979 22.4613 23.4 22.5009 23.7655 22.6522C24.1309 22.8036 24.4433 23.06 24.663 23.3889C24.8828 23.7178 25.0001 24.1044 25.0001 24.5C24.9996 25.0303 24.7887 25.5387 24.4137 25.9136C24.0388 26.2886 23.5304 26.4995 23.0001 26.5ZM28.0001 23.5H26.8581C26.6378 22.6434 26.1395 21.8842 25.4413 21.3413C24.7431 20.7983 23.8845 20.5025 23.0001 20.5V18.5H28.0001V23.5Z" fill="#401C2A"/>
</svg>
