<svg width="32" height="33" viewBox="0 0 32 33" fill="none" xmlns="http://www.w3.org/2000/svg">
<path d="M16.0002 3.5C15.3752 3.5 14.7542 3.71 14.2192 4.094L12.5632 5.25L10.6552 5.5H10.6242L10.5932 5.531C9.96747 5.67231 9.39457 5.98809 8.94095 6.44171C8.48732 6.89534 8.17155 7.46824 8.03024 8.094L8.00024 8.125V8.156L7.75024 10.094L6.59424 11.594L6.56224 11.625V11.656C5.86324 12.773 5.83224 14.215 6.59424 15.281L7.78124 16.937L8.09424 18.657L4.87524 23.562L3.84424 25.094H8.62524L9.78124 27.781L10.5002 29.5L11.5312 27.937L14.6872 23.187C15.5352 23.535 16.4922 23.567 17.3132 23.187L20.4692 27.937L21.5002 29.5L22.2192 27.781L23.3752 25.094H28.1562L27.1252 23.562L24.0002 18.813L24.2502 16.938L25.4062 15.282L25.4382 15.251V15.22C26.1372 14.103 26.1682 12.692 25.4062 11.626L24.2502 9.969L23.8752 8.094H23.9062C23.9022 8.07 23.8792 8.054 23.8752 8.031C23.6952 6.723 22.6602 5.661 21.3442 5.5H21.3122L19.4372 5.25L17.7812 4.094C17.264 3.71512 16.6413 3.50743 16.0002 3.5ZM16.0002 5.531C16.2302 5.531 16.4572 5.601 16.6252 5.719L18.4062 7L18.6252 7.156L18.8752 7.188L21.0632 7.5H21.0932C21.5432 7.55 21.8552 7.863 21.9062 8.313V8.375L22.3132 10.594L22.3432 10.813L22.5002 11L23.7812 12.781C24.0202 13.113 24.0512 13.676 23.7502 14.156L22.3442 16.125L22.3122 16.375L22.0002 18.563V18.593C21.9836 18.7493 21.9301 18.8994 21.8442 19.031L21.7812 19.063V19.093C21.6326 19.2715 21.4195 19.384 21.1882 19.406H21.1252L18.8442 19.813L18.5942 19.843L18.4062 20L16.6252 21.281C16.2932 21.52 15.6992 21.551 15.2192 21.25L13.5942 20L13.4062 19.844L13.1252 19.812L10.9372 19.5H10.9072C10.7658 19.4875 10.6295 19.4412 10.5098 19.365C10.39 19.2887 10.2904 19.1848 10.2192 19.062C10.1528 18.9467 10.1103 18.8191 10.0942 18.687V18.625L9.68824 16.344L9.65624 16.094L9.50024 15.906L8.21924 14.125C7.98024 13.793 7.94924 13.199 8.25024 12.719L9.50024 11.094L9.65624 10.906L9.68724 10.625L9.96924 8.531C9.97324 8.516 9.99624 8.516 10.0002 8.5C10.0626 8.25927 10.1882 8.03961 10.364 7.86377C10.5398 7.68794 10.7595 7.56234 11.0002 7.5C11.0162 7.496 11.0162 7.473 11.0312 7.469L13.1252 7.187L13.3752 7.157L13.5942 7L15.3752 5.719C15.5432 5.602 15.7702 5.531 16.0002 5.531ZM22.9062 20.75L24.4382 23.094H22.0302L21.7802 23.719L21.0932 25.312L18.9682 22.062L19.4362 21.719L21.4062 21.375V21.406C21.4292 21.402 21.4442 21.379 21.4682 21.375C21.9946 21.2991 22.4918 21.0832 22.9062 20.75ZM9.09424 20.781C9.52846 21.1758 10.074 21.4269 10.6562 21.5H10.6872L12.5942 21.75L13.0312 22.094L10.9062 25.312L10.2192 23.719L9.96924 23.094H7.56324L9.09424 20.781Z" fill="#401C2A"/>
</svg>
